M48
; DRILL file {KiCad (5.1.10-1-10_14)} date Friday, October 22, 2021 at 01:12:03 PM
; FORMAT={-:-/ absolute / inch / decimal}
; #@! TF.CreationDate,2021-10-22T13:12:03-04:00
; #@! TF.GenerationSoftware,Kicad,Pcbnew,(5.1.10-1-10_14)
FMAT,2
INCH
T1C0.0118
T2C0.0315
T3C0.0394
T4C0.0453
T5C0.0472
%
G90
G05
T1
X6.0169Y-4.4559
T3
X5.4362Y-4.3622
X5.4362Y-4.6772
X6.0169Y-4.3618
X6.0169Y-4.6768
T4
X5.4512Y-4.0232
X5.4512Y-4.1217
X5.589Y-4.0232
X5.589Y-4.1217
X5.7268Y-4.0232
X5.7268Y-4.1217
X5.8646Y-4.0232
X5.8646Y-4.1217
X6.0024Y-4.0232
X6.0024Y-4.1217
T5
X5.5299Y-4.622
X5.5299Y-4.7205
X5.7268Y-4.4252
X5.9236Y-4.622
X5.9236Y-4.7205
T2
G00X5.5299Y-4.439
M15
G01X5.5299Y-4.4114
M16
G05
G00X5.713Y-4.622
M15
G01X5.7406Y-4.622
M16
G05
G00X5.9236Y-4.439
M15
G01X5.9236Y-4.4114
M16
G05
T0
M30
