G04 #@! TF.GenerationSoftware,KiCad,Pcbnew,(5.1.10-1-10_14)*
G04 #@! TF.CreationDate,2021-10-22T13:12:01-04:00*
G04 #@! TF.ProjectId,Extron Audio 3.5mm Adapter,45787472-6f6e-4204-9175-64696f20332e,1*
G04 #@! TF.SameCoordinates,Original*
G04 #@! TF.FileFunction,Legend,Bot*
G04 #@! TF.FilePolarity,Positive*
%FSLAX46Y46*%
G04 Gerber Fmt 4.6, Leading zero omitted, Abs format (unit mm)*
G04 Created by KiCad (PCBNEW (5.1.10-1-10_14)) date 2021-10-22 13:12:01*
%MOMM*%
%LPD*%
G01*
G04 APERTURE LIST*
%ADD10C,0.200000*%
%ADD11C,0.150000*%
%ADD12O,2.717600X1.409600*%
%ADD13O,1.409600X2.717600*%
%ADD14C,1.301600*%
%ADD15C,1.851600*%
%ADD16C,1.601600*%
G04 APERTURE END LIST*
D10*
X148481428Y-113362380D02*
X148481428Y-114076666D01*
X148529047Y-114219523D01*
X148624285Y-114314761D01*
X148767142Y-114362380D01*
X148862380Y-114362380D01*
X147624285Y-114314761D02*
X147719523Y-114362380D01*
X147910000Y-114362380D01*
X148005238Y-114314761D01*
X148052857Y-114219523D01*
X148052857Y-113838571D01*
X148005238Y-113743333D01*
X147910000Y-113695714D01*
X147719523Y-113695714D01*
X147624285Y-113743333D01*
X147576666Y-113838571D01*
X147576666Y-113933809D01*
X148052857Y-114029047D01*
X147290952Y-113695714D02*
X146910000Y-113695714D01*
X147148095Y-114362380D02*
X147148095Y-113505238D01*
X147100476Y-113410000D01*
X147005238Y-113362380D01*
X146910000Y-113362380D01*
X146719523Y-113695714D02*
X146338571Y-113695714D01*
X146576666Y-114362380D02*
X146576666Y-113505238D01*
X146529047Y-113410000D01*
X146433809Y-113362380D01*
X146338571Y-113362380D01*
X144671904Y-114267142D02*
X144719523Y-114314761D01*
X144862380Y-114362380D01*
X144957619Y-114362380D01*
X145100476Y-114314761D01*
X145195714Y-114219523D01*
X145243333Y-114124285D01*
X145290952Y-113933809D01*
X145290952Y-113790952D01*
X145243333Y-113600476D01*
X145195714Y-113505238D01*
X145100476Y-113410000D01*
X144957619Y-113362380D01*
X144862380Y-113362380D01*
X144719523Y-113410000D01*
X144671904Y-113457619D01*
X144243333Y-114362380D02*
X144243333Y-113362380D01*
X143814761Y-114362380D02*
X143814761Y-113838571D01*
X143862380Y-113743333D01*
X143957619Y-113695714D01*
X144100476Y-113695714D01*
X144195714Y-113743333D01*
X144243333Y-113790952D01*
X142957619Y-114314761D02*
X143052857Y-114362380D01*
X143243333Y-114362380D01*
X143338571Y-114314761D01*
X143386190Y-114219523D01*
X143386190Y-113838571D01*
X143338571Y-113743333D01*
X143243333Y-113695714D01*
X143052857Y-113695714D01*
X142957619Y-113743333D01*
X142910000Y-113838571D01*
X142910000Y-113933809D01*
X143386190Y-114029047D01*
X142481428Y-113695714D02*
X142481428Y-114362380D01*
X142481428Y-113790952D02*
X142433809Y-113743333D01*
X142338571Y-113695714D01*
X142195714Y-113695714D01*
X142100476Y-113743333D01*
X142052857Y-113838571D01*
X142052857Y-114362380D01*
X147124285Y-115157619D02*
X147076666Y-115110000D01*
X146981428Y-115062380D01*
X146743333Y-115062380D01*
X146648095Y-115110000D01*
X146600476Y-115157619D01*
X146552857Y-115252857D01*
X146552857Y-115348095D01*
X146600476Y-115490952D01*
X147171904Y-116062380D01*
X146552857Y-116062380D01*
X145933809Y-115062380D02*
X145838571Y-115062380D01*
X145743333Y-115110000D01*
X145695714Y-115157619D01*
X145648095Y-115252857D01*
X145600476Y-115443333D01*
X145600476Y-115681428D01*
X145648095Y-115871904D01*
X145695714Y-115967142D01*
X145743333Y-116014761D01*
X145838571Y-116062380D01*
X145933809Y-116062380D01*
X146029047Y-116014761D01*
X146076666Y-115967142D01*
X146124285Y-115871904D01*
X146171904Y-115681428D01*
X146171904Y-115443333D01*
X146124285Y-115252857D01*
X146076666Y-115157619D01*
X146029047Y-115110000D01*
X145933809Y-115062380D01*
X145219523Y-115157619D02*
X145171904Y-115110000D01*
X145076666Y-115062380D01*
X144838571Y-115062380D01*
X144743333Y-115110000D01*
X144695714Y-115157619D01*
X144648095Y-115252857D01*
X144648095Y-115348095D01*
X144695714Y-115490952D01*
X145267142Y-116062380D01*
X144648095Y-116062380D01*
X143695714Y-116062380D02*
X144267142Y-116062380D01*
X143981428Y-116062380D02*
X143981428Y-115062380D01*
X144076666Y-115205238D01*
X144171904Y-115300476D01*
X144267142Y-115348095D01*
D11*
X150366190Y-106291428D02*
X149999523Y-106291428D01*
X149842380Y-106867619D02*
X150366190Y-106867619D01*
X150366190Y-105767619D01*
X149842380Y-105767619D01*
X149475714Y-106867619D02*
X148899523Y-106134285D01*
X149475714Y-106134285D02*
X148899523Y-106867619D01*
X148637619Y-106134285D02*
X148218571Y-106134285D01*
X148480476Y-105767619D02*
X148480476Y-106710476D01*
X148428095Y-106815238D01*
X148323333Y-106867619D01*
X148218571Y-106867619D01*
X147851904Y-106867619D02*
X147851904Y-106134285D01*
X147851904Y-106343809D02*
X147799523Y-106239047D01*
X147747142Y-106186666D01*
X147642380Y-106134285D01*
X147537619Y-106134285D01*
X147013809Y-106867619D02*
X147118571Y-106815238D01*
X147170952Y-106762857D01*
X147223333Y-106658095D01*
X147223333Y-106343809D01*
X147170952Y-106239047D01*
X147118571Y-106186666D01*
X147013809Y-106134285D01*
X146856666Y-106134285D01*
X146751904Y-106186666D01*
X146699523Y-106239047D01*
X146647142Y-106343809D01*
X146647142Y-106658095D01*
X146699523Y-106762857D01*
X146751904Y-106815238D01*
X146856666Y-106867619D01*
X147013809Y-106867619D01*
X146175714Y-106134285D02*
X146175714Y-106867619D01*
X146175714Y-106239047D02*
X146123333Y-106186666D01*
X146018571Y-106134285D01*
X145861428Y-106134285D01*
X145756666Y-106186666D01*
X145704285Y-106291428D01*
X145704285Y-106867619D01*
X144394761Y-106553333D02*
X143870952Y-106553333D01*
X144499523Y-106867619D02*
X144132857Y-105767619D01*
X143766190Y-106867619D01*
X142928095Y-106134285D02*
X142928095Y-106867619D01*
X143399523Y-106134285D02*
X143399523Y-106710476D01*
X143347142Y-106815238D01*
X143242380Y-106867619D01*
X143085238Y-106867619D01*
X142980476Y-106815238D01*
X142928095Y-106762857D01*
X141932857Y-106867619D02*
X141932857Y-105767619D01*
X141932857Y-106815238D02*
X142037619Y-106867619D01*
X142247142Y-106867619D01*
X142351904Y-106815238D01*
X142404285Y-106762857D01*
X142456666Y-106658095D01*
X142456666Y-106343809D01*
X142404285Y-106239047D01*
X142351904Y-106186666D01*
X142247142Y-106134285D01*
X142037619Y-106134285D01*
X141932857Y-106186666D01*
X141409047Y-106867619D02*
X141409047Y-106134285D01*
X141409047Y-105767619D02*
X141461428Y-105820000D01*
X141409047Y-105872380D01*
X141356666Y-105820000D01*
X141409047Y-105767619D01*
X141409047Y-105872380D01*
X140728095Y-106867619D02*
X140832857Y-106815238D01*
X140885238Y-106762857D01*
X140937619Y-106658095D01*
X140937619Y-106343809D01*
X140885238Y-106239047D01*
X140832857Y-106186666D01*
X140728095Y-106134285D01*
X140570952Y-106134285D01*
X140466190Y-106186666D01*
X140413809Y-106239047D01*
X140361428Y-106343809D01*
X140361428Y-106658095D01*
X140413809Y-106762857D01*
X140466190Y-106815238D01*
X140570952Y-106867619D01*
X140728095Y-106867619D01*
X149685238Y-107567619D02*
X149004285Y-107567619D01*
X149370952Y-107986666D01*
X149213809Y-107986666D01*
X149109047Y-108039047D01*
X149056666Y-108091428D01*
X149004285Y-108196190D01*
X149004285Y-108458095D01*
X149056666Y-108562857D01*
X149109047Y-108615238D01*
X149213809Y-108667619D01*
X149528095Y-108667619D01*
X149632857Y-108615238D01*
X149685238Y-108562857D01*
X148532857Y-108562857D02*
X148480476Y-108615238D01*
X148532857Y-108667619D01*
X148585238Y-108615238D01*
X148532857Y-108562857D01*
X148532857Y-108667619D01*
X147485238Y-107567619D02*
X148009047Y-107567619D01*
X148061428Y-108091428D01*
X148009047Y-108039047D01*
X147904285Y-107986666D01*
X147642380Y-107986666D01*
X147537619Y-108039047D01*
X147485238Y-108091428D01*
X147432857Y-108196190D01*
X147432857Y-108458095D01*
X147485238Y-108562857D01*
X147537619Y-108615238D01*
X147642380Y-108667619D01*
X147904285Y-108667619D01*
X148009047Y-108615238D01*
X148061428Y-108562857D01*
X143609047Y-108667619D02*
X143609047Y-107934285D01*
X143609047Y-108039047D02*
X143556666Y-107986666D01*
X143451904Y-107934285D01*
X143294761Y-107934285D01*
X143190000Y-107986666D01*
X143137619Y-108091428D01*
X143137619Y-108667619D01*
X143137619Y-108091428D02*
X143085238Y-107986666D01*
X142980476Y-107934285D01*
X142823333Y-107934285D01*
X142718571Y-107986666D01*
X142666190Y-108091428D01*
X142666190Y-108667619D01*
X142142380Y-108667619D02*
X142142380Y-107934285D01*
X142142380Y-108039047D02*
X142090000Y-107986666D01*
X141985238Y-107934285D01*
X141828095Y-107934285D01*
X141723333Y-107986666D01*
X141670952Y-108091428D01*
X141670952Y-108667619D01*
X141670952Y-108091428D02*
X141618571Y-107986666D01*
X141513809Y-107934285D01*
X141356666Y-107934285D01*
X141251904Y-107986666D01*
X141199523Y-108091428D01*
X141199523Y-108667619D01*
X148270952Y-110153333D02*
X147747142Y-110153333D01*
X148375714Y-110467619D02*
X148009047Y-109367619D01*
X147642380Y-110467619D01*
X146804285Y-110467619D02*
X146804285Y-109367619D01*
X146804285Y-110415238D02*
X146909047Y-110467619D01*
X147118571Y-110467619D01*
X147223333Y-110415238D01*
X147275714Y-110362857D01*
X147328095Y-110258095D01*
X147328095Y-109943809D01*
X147275714Y-109839047D01*
X147223333Y-109786666D01*
X147118571Y-109734285D01*
X146909047Y-109734285D01*
X146804285Y-109786666D01*
X145809047Y-110467619D02*
X145809047Y-109891428D01*
X145861428Y-109786666D01*
X145966190Y-109734285D01*
X146175714Y-109734285D01*
X146280476Y-109786666D01*
X145809047Y-110415238D02*
X145913809Y-110467619D01*
X146175714Y-110467619D01*
X146280476Y-110415238D01*
X146332857Y-110310476D01*
X146332857Y-110205714D01*
X146280476Y-110100952D01*
X146175714Y-110048571D01*
X145913809Y-110048571D01*
X145809047Y-109996190D01*
X145285238Y-109734285D02*
X145285238Y-110834285D01*
X145285238Y-109786666D02*
X145180476Y-109734285D01*
X144970952Y-109734285D01*
X144866190Y-109786666D01*
X144813809Y-109839047D01*
X144761428Y-109943809D01*
X144761428Y-110258095D01*
X144813809Y-110362857D01*
X144866190Y-110415238D01*
X144970952Y-110467619D01*
X145180476Y-110467619D01*
X145285238Y-110415238D01*
X144447142Y-109734285D02*
X144028095Y-109734285D01*
X144290000Y-109367619D02*
X144290000Y-110310476D01*
X144237619Y-110415238D01*
X144132857Y-110467619D01*
X144028095Y-110467619D01*
X143242380Y-110415238D02*
X143347142Y-110467619D01*
X143556666Y-110467619D01*
X143661428Y-110415238D01*
X143713809Y-110310476D01*
X143713809Y-109891428D01*
X143661428Y-109786666D01*
X143556666Y-109734285D01*
X143347142Y-109734285D01*
X143242380Y-109786666D01*
X143190000Y-109891428D01*
X143190000Y-109996190D01*
X143713809Y-110100952D01*
X142718571Y-110467619D02*
X142718571Y-109734285D01*
X142718571Y-109943809D02*
X142666190Y-109839047D01*
X142613809Y-109786666D01*
X142509047Y-109734285D01*
X142404285Y-109734285D01*
%LPC*%
D12*
X145460000Y-117400000D03*
D13*
X150460000Y-112400000D03*
X140460000Y-112400000D03*
D14*
X140460000Y-119900000D03*
X140460000Y-117400000D03*
X145460000Y-112400000D03*
X150460000Y-119900000D03*
X150460000Y-117400000D03*
D15*
X138460000Y-102190000D03*
X141960000Y-102190000D03*
X145460000Y-102190000D03*
X148960000Y-102190000D03*
X152460000Y-102190000D03*
X138460000Y-104690000D03*
X141960000Y-104690000D03*
X145460000Y-104690000D03*
X148960000Y-104690000D03*
X152460000Y-104690000D03*
D16*
X152830000Y-118790000D03*
X152830000Y-110790000D03*
X138080000Y-118800000D03*
X138080000Y-110800000D03*
M02*
