G04 #@! TF.GenerationSoftware,KiCad,Pcbnew,(5.1.10-1-10_14)*
G04 #@! TF.CreationDate,2021-10-22T13:12:01-04:00*
G04 #@! TF.ProjectId,Extron Audio 3.5mm Adapter,45787472-6f6e-4204-9175-64696f20332e,1*
G04 #@! TF.SameCoordinates,Original*
G04 #@! TF.FileFunction,Legend,Top*
G04 #@! TF.FilePolarity,Positive*
%FSLAX46Y46*%
G04 Gerber Fmt 4.6, Leading zero omitted, Abs format (unit mm)*
G04 Created by KiCad (PCBNEW (5.1.10-1-10_14)) date 2021-10-22 13:12:01*
%MOMM*%
%LPD*%
G01*
G04 APERTURE LIST*
%ADD10C,0.127000*%
%ADD11C,0.125000*%
%ADD12C,0.340000*%
%ADD13C,0.120000*%
%ADD14C,0.150000*%
%ADD15C,0.131179*%
%ADD16O,2.717600X1.409600*%
%ADD17O,1.409600X2.717600*%
%ADD18C,1.301600*%
%ADD19C,1.851600*%
%ADD20C,1.601600*%
G04 APERTURE END LIST*
D10*
X152840000Y-117120000D02*
X152840000Y-117860000D01*
X138080000Y-117060000D02*
X138080000Y-117870000D01*
X138080000Y-111720000D02*
X138080000Y-113420000D01*
X152830000Y-111690000D02*
X152830000Y-112710000D01*
D11*
X137786190Y-112697142D02*
X137786190Y-112982857D01*
X137786190Y-112840000D02*
X137286190Y-112840000D01*
X137357619Y-112887619D01*
X137405238Y-112935238D01*
X137429047Y-112982857D01*
X137786190Y-112482857D02*
X137286190Y-112482857D01*
X137786190Y-112197142D02*
X137500476Y-112411428D01*
X137286190Y-112197142D02*
X137571904Y-112482857D01*
X152526190Y-112447142D02*
X152526190Y-112732857D01*
X152526190Y-112590000D02*
X152026190Y-112590000D01*
X152097619Y-112637619D01*
X152145238Y-112685238D01*
X152169047Y-112732857D01*
X152526190Y-112232857D02*
X152026190Y-112232857D01*
X152526190Y-111947142D02*
X152240476Y-112161428D01*
X152026190Y-111947142D02*
X152311904Y-112232857D01*
D10*
X139260000Y-109900000D02*
X151660000Y-109900000D01*
X151660000Y-109900000D02*
X151660000Y-120900000D01*
X139260000Y-109900000D02*
X139260000Y-120900000D01*
X139260000Y-120900000D02*
X140960000Y-120900000D01*
X149960000Y-120900000D02*
X151660000Y-120900000D01*
X140960000Y-120900000D02*
X140960000Y-121700000D01*
X149960000Y-120900000D02*
X149960000Y-121700000D01*
D12*
X142390000Y-119870000D02*
G75*
G03*
X142390000Y-119870000I-170000J0D01*
G01*
D13*
X153690000Y-101050000D02*
X153690000Y-105900000D01*
X153690000Y-105900000D02*
X137230000Y-105900000D01*
X137230000Y-105900000D02*
X137230000Y-101050000D01*
D10*
X153720000Y-114260000D02*
X153720000Y-116260000D01*
X151940000Y-114260000D02*
X151940000Y-116260000D01*
X138960000Y-114240000D02*
X138960000Y-116240000D01*
X137180000Y-114240000D02*
X137180000Y-116240000D01*
D14*
X145136532Y-118842160D02*
X145136532Y-119556733D01*
X145088894Y-119699648D01*
X144993618Y-119794924D01*
X144850703Y-119842562D01*
X144755427Y-119842562D01*
X146136934Y-119842562D02*
X145565276Y-119842562D01*
X145851105Y-119842562D02*
X145851105Y-118842160D01*
X145755829Y-118985075D01*
X145660552Y-119080351D01*
X145565276Y-119127989D01*
X143001904Y-103842380D02*
X143001904Y-102842380D01*
X143382857Y-102842380D01*
X143478095Y-102890000D01*
X143525714Y-102937619D01*
X143573333Y-103032857D01*
X143573333Y-103175714D01*
X143525714Y-103270952D01*
X143478095Y-103318571D01*
X143382857Y-103366190D01*
X143001904Y-103366190D01*
X144525714Y-103842380D02*
X143954285Y-103842380D01*
X144240000Y-103842380D02*
X144240000Y-102842380D01*
X144144761Y-102985238D01*
X144049523Y-103080476D01*
X143954285Y-103128095D01*
D15*
X152507371Y-117497452D02*
X152257506Y-117672358D01*
X152507371Y-117797290D02*
X151982655Y-117797290D01*
X151982655Y-117597398D01*
X152007642Y-117547425D01*
X152032628Y-117522439D01*
X152082601Y-117497452D01*
X152157560Y-117497452D01*
X152207533Y-117522439D01*
X152232520Y-117547425D01*
X152257506Y-117597398D01*
X152257506Y-117797290D01*
X152507371Y-116997723D02*
X152507371Y-117297560D01*
X152507371Y-117147642D02*
X151982655Y-117147642D01*
X152057614Y-117197614D01*
X152107587Y-117247587D01*
X152132574Y-117297560D01*
X137797371Y-117517452D02*
X137547506Y-117692358D01*
X137797371Y-117817290D02*
X137272655Y-117817290D01*
X137272655Y-117617398D01*
X137297642Y-117567425D01*
X137322628Y-117542439D01*
X137372601Y-117517452D01*
X137447560Y-117517452D01*
X137497533Y-117542439D01*
X137522520Y-117567425D01*
X137547506Y-117617398D01*
X137547506Y-117817290D01*
X137322628Y-117317560D02*
X137297642Y-117292574D01*
X137272655Y-117242601D01*
X137272655Y-117117669D01*
X137297642Y-117067696D01*
X137322628Y-117042709D01*
X137372601Y-117017723D01*
X137422574Y-117017723D01*
X137497533Y-117042709D01*
X137797371Y-117342547D01*
X137797371Y-117017723D01*
%LPC*%
D16*
X145460000Y-117400000D03*
D17*
X150460000Y-112400000D03*
X140460000Y-112400000D03*
D18*
X140460000Y-119900000D03*
X140460000Y-117400000D03*
X145460000Y-112400000D03*
X150460000Y-119900000D03*
X150460000Y-117400000D03*
D19*
X138460000Y-102190000D03*
X141960000Y-102190000D03*
X145460000Y-102190000D03*
X148960000Y-102190000D03*
X152460000Y-102190000D03*
X138460000Y-104690000D03*
X141960000Y-104690000D03*
X145460000Y-104690000D03*
X148960000Y-104690000D03*
X152460000Y-104690000D03*
G36*
G01*
X152267488Y-113774200D02*
X153392512Y-113774200D01*
G75*
G02*
X153590800Y-113972488I0J-198288D01*
G01*
X153590800Y-114677512D01*
G75*
G02*
X153392512Y-114875800I-198288J0D01*
G01*
X152267488Y-114875800D01*
G75*
G02*
X152069200Y-114677512I0J198288D01*
G01*
X152069200Y-113972488D01*
G75*
G02*
X152267488Y-113774200I198288J0D01*
G01*
G37*
G36*
G01*
X152267488Y-115644200D02*
X153392512Y-115644200D01*
G75*
G02*
X153590800Y-115842488I0J-198288D01*
G01*
X153590800Y-116547512D01*
G75*
G02*
X153392512Y-116745800I-198288J0D01*
G01*
X152267488Y-116745800D01*
G75*
G02*
X152069200Y-116547512I0J198288D01*
G01*
X152069200Y-115842488D01*
G75*
G02*
X152267488Y-115644200I198288J0D01*
G01*
G37*
G36*
G01*
X137507488Y-113754200D02*
X138632512Y-113754200D01*
G75*
G02*
X138830800Y-113952488I0J-198288D01*
G01*
X138830800Y-114657512D01*
G75*
G02*
X138632512Y-114855800I-198288J0D01*
G01*
X137507488Y-114855800D01*
G75*
G02*
X137309200Y-114657512I0J198288D01*
G01*
X137309200Y-113952488D01*
G75*
G02*
X137507488Y-113754200I198288J0D01*
G01*
G37*
G36*
G01*
X137507488Y-115624200D02*
X138632512Y-115624200D01*
G75*
G02*
X138830800Y-115822488I0J-198288D01*
G01*
X138830800Y-116527512D01*
G75*
G02*
X138632512Y-116725800I-198288J0D01*
G01*
X137507488Y-116725800D01*
G75*
G02*
X137309200Y-116527512I0J198288D01*
G01*
X137309200Y-115822488D01*
G75*
G02*
X137507488Y-115624200I198288J0D01*
G01*
G37*
D20*
X152830000Y-118790000D03*
X152830000Y-110790000D03*
X138080000Y-118800000D03*
X138080000Y-110800000D03*
M02*
